<svg id="Capa_1" enable-background="new 0 0 512 512" height="512" viewBox="0 0 512 512" width="512" xmlns="http://www.w3.org/2000/svg"><g><circle cx="132.359" cy="344.611" fill="#407093" r="87.211"/><path d="m150.525 429.93c-5.851 1.246-11.929 1.896-18.162 1.896-48.171 0-87.215-39.044-87.215-87.215 0-48.161 39.044-87.204 87.215-87.204 6.233 0 12.311.649 18.162 1.896-39.456 8.344-69.063 43.37-69.063 85.309 0 41.948 29.607 76.974 69.063 85.318z" fill="#365e7d"/><circle cx="380.603" cy="344.611" fill="#407093" r="87.211"/><path d="m398.769 429.93c-5.851 1.246-11.929 1.896-18.162 1.896-48.171 0-87.215-39.044-87.215-87.215 0-48.161 39.044-87.204 87.215-87.204 6.233 0 12.311.649 18.162 1.896-39.456 8.344-69.063 43.37-69.063 85.309 0 41.948 29.607 76.974 69.063 85.318z" fill="#365e7d"/><path d="m45.393 361.162c-14.05 0-27.074-6.346-35.732-17.411-8.658-11.065-11.686-25.233-8.306-38.87l48.579-196.064c4.26-17.193 15.738-31.698 31.49-39.797s34.226-8.993 50.689-2.453l30.544 12.133c8.309 3.301 12.369 12.712 9.068 21.022-3.301 8.309-12.712 12.37-21.022 9.068l-30.545-12.134c-7.771-3.087-16.493-2.665-23.931 1.159-7.437 3.823-12.856 10.672-14.868 18.789l-48.578 196.063c-.968 3.906-.101 7.963 2.379 11.132 2.479 3.169 6.209 4.986 10.233 4.986 8.941 0 8.941 32.377 0 32.377z" fill="#bed8fb"/><path d="m118.729 62.943c-6.49.979-12.836 3.008-18.801 6.078-15.762 8.097-27.238 22.602-31.493 39.796l-48.582 196.062c-3.379 13.639-.35 27.804 8.303 38.869 5.511 7.046 12.795 12.177 20.985 14.968-.999 1.525-2.246 2.441-3.75 2.441-14.052 0-27.073-6.346-35.727-17.41-8.664-11.064-11.692-25.229-8.313-38.869l48.583-196.063c4.265-17.194 15.741-31.698 31.493-39.796 11.589-5.952 24.651-8.013 37.302-6.076z" fill="#9dc6fb"/><path d="m466.61 361.162c14.05 0 27.074-6.346 35.732-17.411s11.686-25.233 8.306-38.87l-48.579-196.064c-4.26-17.193-15.738-31.698-31.49-39.797s-34.227-8.993-50.689-2.453l-30.544 12.133c-8.309 3.301-12.369 12.712-9.068 21.022 3.301 8.309 12.712 12.37 21.022 9.068l30.544-12.134c7.771-3.087 16.493-2.665 23.931 1.159 7.437 3.823 12.856 10.672 14.868 18.789l48.579 196.064c.968 3.906.101 7.963-2.379 11.132-2.479 3.169-6.209 4.986-10.233 4.986-8.94-.001-8.94 32.376 0 32.376z" fill="#bed8fb"/><path d="m491.928 323.792c-2.483 3.173-6.212 4.986-10.23 4.986-7.747 0-8.777 24.271-3.111 30.782-3.843 1.051-7.86 1.597-11.971 1.597-8.942 0-8.942-32.378 0-32.378 4.018 0 7.747-1.813 10.23-4.986 2.483-3.163 3.348-7.221 2.38-11.126l-48.583-196.063c-2.009-8.118-7.428-14.968-14.865-18.79-1.834-.948-3.739-1.679-5.697-2.205 6.913-1.865 14.33-1.113 20.779 2.205 7.438 3.822 12.857 10.673 14.865 18.79l48.583 196.063c.968 3.904.103 7.963-2.38 11.125z" fill="#9dc6fb"/><path d="m379.37 240.168c-27.878 0-53.209 10.889-71.983 28.642-14.914-10.68-32.708-16.461-51.384-16.461-18.697 0-36.478 5.78-51.387 16.462-18.774-17.754-44.105-28.643-71.984-28.643-57.88 0-104.795 46.926-104.795 104.805 0 57.869 46.915 104.795 104.795 104.795s104.795-46.926 104.795-104.795c0-18.328-4.709-35.554-12.976-50.543 9.242-6.31 20.132-9.704 31.551-9.704 11.406 0 22.299 3.4 31.545 9.709-8.265 14.988-12.973 32.212-12.973 50.538 0 57.869 46.915 104.795 104.795 104.795s104.795-46.926 104.795-104.795c.001-57.879-46.914-104.805-104.794-104.805zm-246.737 177.223c-39.932 0-72.417-32.485-72.417-72.417s32.485-72.428 72.417-72.428 72.417 32.496 72.417 72.428-32.485 72.417-72.417 72.417zm246.737 0c-39.932 0-72.417-32.485-72.417-72.417s32.485-72.428 72.417-72.428 72.417 32.496 72.417 72.428-32.485 72.417-72.417 72.417z" fill="#bed8fb"/><g fill="#9dc6fb"><path d="m385.993 417.075c2.183.199 4.389.316 6.623.316 39.932 0 72.417-32.485 72.417-72.417s-32.485-72.428-72.417-72.428c-2.234 0-4.44.117-6.623.316 36.838 3.358 65.794 34.414 65.794 72.112s-28.956 68.744-65.794 72.101z"/><path d="m287.822 344.974c0-18.326 4.708-35.55 12.973-50.538-9.245-6.308-20.139-9.709-31.545-9.709-2.233 0-4.444.134-6.628.39 8.981 1.054 17.488 4.243 24.927 9.319-8.265 14.988-12.973 32.212-12.973 50.538 0 57.869 46.915 104.795 104.795 104.795 2.225 0 4.432-.078 6.623-.214-54.794-3.42-98.172-48.937-98.172-104.581z"/><path d="m41.085 344.974c0-55.656 43.381-101.175 98.176-104.591-2.192-.137-4.401-.214-6.628-.214-57.88 0-104.795 46.926-104.795 104.805 0 57.869 46.915 104.795 104.795 104.795 2.225 0 4.432-.078 6.623-.214-54.792-3.42-98.171-48.937-98.171-104.581z"/><path d="m139.256 417.075c2.183.199 4.389.316 6.623.316 39.932 0 72.417-32.485 72.417-72.417s-32.485-72.428-72.417-72.428c-2.234 0-4.44.117-6.623.316 36.838 3.358 65.794 34.414 65.794 72.112s-28.956 68.744-65.794 72.101z"/></g></g></svg>